<?xml version="1.0" standalone="no"?><!DOCTYPE svg PUBLIC "-//W3C//DTD SVG 1.1//EN" "http://www.w3.org/Graphics/SVG/1.1/DTD/svg11.dtd"><svg t="1602231626194" class="icon" viewBox="0 0 1024 1024" version="1.1" xmlns="http://www.w3.org/2000/svg" p-id="11455" width="32" height="32" xmlns:xlink="http://www.w3.org/1999/xlink"><defs><style type="text/css"></style></defs><path d="M366.036116 723.970716c-38.862099 0-70.634734 31.823799-70.634734 70.637804 0 38.916335 31.773657 70.689992 70.634734 70.689992 38.916335 0 70.689992-31.773657 70.689992-70.689992C436.726108 755.794515 404.95245 723.970716 366.036116 723.970716M154.06847 158.700465l0 70.692039 70.688969 0 127.204124 268.479731-49.525973 84.766592c-3.464915 10.55745-7.034207 24.737404-7.034207 35.348066 0 38.862099 31.773657 70.635757 70.634734 70.635757l423.940408 0 0-70.635757-409.81162 0c-3.572362 0-7.036253-3.571339-7.036253-7.091512l0-3.51915 31.823799-60.029188 261.392312 0c28.202319 0 49.41955-14.180977 60.030212-35.347043l127.150912-229.614561c7.140631-7.142677 7.140631-10.610662 7.140631-17.699104 0-21.217231-14.179954-35.293831-35.346019-35.293831l-522.885931 0-31.828916-70.692039L154.06847 158.700465zM719.334627 723.970716c-38.862099 0-70.635757 31.823799-70.635757 70.637804 0 38.916335 31.774681 70.689992 70.635757 70.689992 38.868239 0 70.641897-31.773657 70.641897-70.689992C789.976524 755.794515 758.202866 723.970716 719.334627 723.970716" p-id="11456" fill="#1296db"></path></svg>