<?xml version="1.0" standalone="no"?><!DOCTYPE svg PUBLIC "-//W3C//DTD SVG 1.1//EN" "http://www.w3.org/Graphics/SVG/1.1/DTD/svg11.dtd"><svg t="1602232071545" class="icon" viewBox="0 0 1024 1024" version="1.1" xmlns="http://www.w3.org/2000/svg" p-id="12905" width="32" height="32" xmlns:xlink="http://www.w3.org/1999/xlink"><defs><style type="text/css"></style></defs><path d="M430.08 896h-1.536c-20.48-0.512-38.912-11.264-49.664-29.184l-74.24-124.928H212.992c-82.432 0-149.504-67.072-149.504-149.504V276.992C64 194.56 131.072 128 213.504 128h597.504c82.432 0 149.504 67.072 149.504 149.504v315.904c0 82.432-67.072 149.504-149.504 149.504h-246.272L480.256 870.4c-11.776 15.872-30.208 25.6-50.176 25.6zM213.504 189.44c-48.64 0-88.064 39.424-88.064 88.064v315.904c0 48.64 39.424 88.064 88.064 88.064h91.648c21.504 0 41.472 11.264 52.736 30.208L430.08 833.024l87.04-131.072a46.592 46.592 0 0 1 38.912-20.992h253.952c48.64 0 88.064-39.424 88.064-88.064V276.992c0-48.64-39.424-88.064-88.064-88.064H213.504z" p-id="12906" fill="#1296db"></path><path d="M307.2 435.2m-61.44 0a61.44 61.44 0 1 0 122.88 0 61.44 61.44 0 1 0-122.88 0Z" p-id="12907" fill="#1296db"></path><path d="M512 435.2m-61.44 0a61.44 61.44 0 1 0 122.88 0 61.44 61.44 0 1 0-122.88 0Z" p-id="12908" fill="#1296db"></path><path d="M716.8 435.2m-61.44 0a61.44 61.44 0 1 0 122.88 0 61.44 61.44 0 1 0-122.88 0Z" p-id="12909" fill="#1296db"></path></svg>